<svg viewBox="0 0 24 24" fill="none" xmlns="http://www.w3.org/2000/svg" id="Restart--Streamline-Solar" height="24" width="24">
  <desc>
    Restart Streamline Icon: https://streamlinehq.com
  </desc>
  <path d="M18.2577 3.50828c0.2803 0.11609 0.463 0.38957 0.463 0.69291v4.24264c0 0.41422 -0.3358 0.75 -0.75 0.75H13.728c-0.3033 0 -0.5768 -0.18273 -0.6929 -0.46298 -0.116 -0.28026 -0.0519 -0.60285 0.1626 -0.81735l1.603 -1.603c-2.6333 -1.10138 -5.78464 -0.5796 -7.92722 1.56298 -2.83131 2.83132 -2.83131 7.42172 0 10.25302 2.8313 2.8313 7.42172 2.8313 10.25302 0 1.6462 -1.6462 2.3357 -3.8864 2.067 -6.0328 -0.0515 -0.411 0.24 -0.7859 0.651 -0.8374 0.411 -0.0514 0.7859 0.24 0.8374 0.651 0.3238 2.5861 -0.5073 5.2924 -2.4947 7.2799 -3.4171 3.4171 -8.9573 3.4171 -12.37438 0 -3.41709 -3.4171 -3.41709 -8.9573 0 -12.37438C8.55119 4.07444 12.6515 3.5312 15.9309 5.18028l1.5095 -1.50942c0.2145 -0.21449 0.537 -0.27866 0.8173 -0.16258Z" fill="#000000" stroke-width="1"></path>
</svg>